<mxfile host="app.diagrams.net" agent="Mozilla/5.0 (Macintosh; Intel Mac OS X 10_15_7) AppleWebKit/537.36 (KHTML, like Gecko) Chrome/128.0.0.0 Safari/537.36" version="24.7.12">
  <diagram name="Page-1" id="FMJqjEUXUsbJReTK2O-N">
    <mxGraphModel dx="1026" dy="650" grid="1" gridSize="10" guides="1" tooltips="1" connect="1" arrows="1" fold="1" page="1" pageScale="1" pageWidth="850" pageHeight="1100" math="0" shadow="0">
      <root>
        <mxCell id="0" />
        <mxCell id="1" parent="0" />
        <mxCell id="CVEjTcs2GT_3670dd3s0-2" value="Tool Chain" style="swimlane;whiteSpace=wrap;html=1;" vertex="1" parent="1">
          <mxGeometry x="130" y="860" width="900" height="130" as="geometry" />
        </mxCell>
        <mxCell id="CVEjTcs2GT_3670dd3s0-3" value="Remix IDE" style="rounded=0;whiteSpace=wrap;html=1;" vertex="1" parent="CVEjTcs2GT_3670dd3s0-2">
          <mxGeometry x="30" y="40" width="120" height="60" as="geometry" />
        </mxCell>
        <mxCell id="CVEjTcs2GT_3670dd3s0-4" value="Foundry or Hardhat" style="rounded=0;whiteSpace=wrap;html=1;" vertex="1" parent="CVEjTcs2GT_3670dd3s0-2">
          <mxGeometry x="200" y="40" width="120" height="60" as="geometry" />
        </mxCell>
        <mxCell id="CVEjTcs2GT_3670dd3s0-5" value="Openzepplin package" style="rounded=0;whiteSpace=wrap;html=1;" vertex="1" parent="CVEjTcs2GT_3670dd3s0-2">
          <mxGeometry x="370" y="40" width="130" height="60" as="geometry" />
        </mxCell>
        <mxCell id="CVEjTcs2GT_3670dd3s0-6" value="ERC Standards" style="swimlane;whiteSpace=wrap;html=1;" vertex="1" parent="1">
          <mxGeometry x="130" y="610" width="900" height="210" as="geometry" />
        </mxCell>
        <mxCell id="CVEjTcs2GT_3670dd3s0-7" value="ERC20" style="rounded=0;whiteSpace=wrap;html=1;" vertex="1" parent="CVEjTcs2GT_3670dd3s0-6">
          <mxGeometry x="30" y="40" width="120" height="60" as="geometry" />
        </mxCell>
        <mxCell id="CVEjTcs2GT_3670dd3s0-8" value="ERC165" style="rounded=0;whiteSpace=wrap;html=1;" vertex="1" parent="CVEjTcs2GT_3670dd3s0-6">
          <mxGeometry x="200" y="40" width="120" height="60" as="geometry" />
        </mxCell>
        <mxCell id="CVEjTcs2GT_3670dd3s0-9" value="ERC2612" style="rounded=0;whiteSpace=wrap;html=1;" vertex="1" parent="CVEjTcs2GT_3670dd3s0-6">
          <mxGeometry x="370" y="120" width="120" height="60" as="geometry" />
        </mxCell>
        <mxCell id="CVEjTcs2GT_3670dd3s0-10" value="ERC3643" style="rounded=0;whiteSpace=wrap;html=1;" vertex="1" parent="CVEjTcs2GT_3670dd3s0-6">
          <mxGeometry x="30" y="120" width="120" height="60" as="geometry" />
        </mxCell>
        <mxCell id="CVEjTcs2GT_3670dd3s0-11" value="ERC4626" style="rounded=0;whiteSpace=wrap;html=1;" vertex="1" parent="CVEjTcs2GT_3670dd3s0-6">
          <mxGeometry x="200" y="120" width="120" height="60" as="geometry" />
        </mxCell>
        <mxCell id="CVEjTcs2GT_3670dd3s0-12" value="ERC1967" style="rounded=0;whiteSpace=wrap;html=1;" vertex="1" parent="CVEjTcs2GT_3670dd3s0-6">
          <mxGeometry x="370" y="40" width="120" height="60" as="geometry" />
        </mxCell>
        <mxCell id="CVEjTcs2GT_3670dd3s0-15" value="EVM" style="swimlane;horizontal=0;whiteSpace=wrap;html=1;" vertex="1" parent="1">
          <mxGeometry x="35" y="30" width="1065" height="990" as="geometry" />
        </mxCell>
        <mxCell id="CVEjTcs2GT_3670dd3s0-13" value="Functionality" style="swimlane;whiteSpace=wrap;html=1;" vertex="1" parent="CVEjTcs2GT_3670dd3s0-15">
          <mxGeometry x="95" y="330" width="895" height="220" as="geometry" />
        </mxCell>
        <mxCell id="CVEjTcs2GT_3670dd3s0-20" value="transfer" style="rounded=0;whiteSpace=wrap;html=1;" vertex="1" parent="CVEjTcs2GT_3670dd3s0-13">
          <mxGeometry x="20" y="40" width="120" height="60" as="geometry" />
        </mxCell>
        <mxCell id="CVEjTcs2GT_3670dd3s0-21" value="balanceOf" style="rounded=0;whiteSpace=wrap;html=1;" vertex="1" parent="CVEjTcs2GT_3670dd3s0-13">
          <mxGeometry x="160" y="40" width="120" height="60" as="geometry" />
        </mxCell>
        <mxCell id="CVEjTcs2GT_3670dd3s0-22" value="approve" style="rounded=0;whiteSpace=wrap;html=1;" vertex="1" parent="CVEjTcs2GT_3670dd3s0-13">
          <mxGeometry x="300" y="40" width="120" height="60" as="geometry" />
        </mxCell>
        <mxCell id="CVEjTcs2GT_3670dd3s0-23" value="transferFrom" style="rounded=0;whiteSpace=wrap;html=1;" vertex="1" parent="CVEjTcs2GT_3670dd3s0-13">
          <mxGeometry x="20" y="130" width="120" height="60" as="geometry" />
        </mxCell>
        <mxCell id="CVEjTcs2GT_3670dd3s0-24" value="permit" style="rounded=0;whiteSpace=wrap;html=1;" vertex="1" parent="CVEjTcs2GT_3670dd3s0-13">
          <mxGeometry x="300" y="130" width="120" height="60" as="geometry" />
        </mxCell>
        <mxCell id="CVEjTcs2GT_3670dd3s0-14" value="Security" style="swimlane;whiteSpace=wrap;html=1;" vertex="1" parent="CVEjTcs2GT_3670dd3s0-15">
          <mxGeometry x="95" y="70" width="895" height="210" as="geometry" />
        </mxCell>
        <mxCell id="CVEjTcs2GT_3670dd3s0-19" value="Rust or Nodejs" style="rounded=0;whiteSpace=wrap;html=1;" vertex="1" parent="CVEjTcs2GT_3670dd3s0-15">
          <mxGeometry x="635" y="870" width="130" height="60" as="geometry" />
        </mxCell>
      </root>
    </mxGraphModel>
  </diagram>
</mxfile>
